<svg xmlns="http://www.w3.org/2000/svg" width="105.612" height="93.393" style=""><rect id="backgroundrect" width="100%" height="100%" x="0" y="0" fill="none" stroke="none"/>
  
<g class="currentLayer" style=""><title>Layer 1</title><path fill="#57b04b" d="M 0 0.322 L 36.738 0.322 C 36.738 0.322 70.11 50.742 71.103 52.097 C 72.099 53.449 72.222 52.097 72.222 52.097 C 70.684 44.289 69.014 40.785 69.014 28.317 L 69.014 0.322 L 105.612 0.322 L 105.612 93.715 L 69.015 93.715 C 69.015 93.715 36.327 45.985 35.337 44.666 C 34.354 43.348 34.225 44.666 34.225 44.666 C 35.482 51.111 36.598 52.189 36.598 63.369 L 36.598 93.715 L 0 93.715 L 0 0.322 Z" id="svg_1"/></g></svg>